<?xml version="1.0" encoding="iso-8859-1"?>
<!-- Generator: Adobe Illustrator 19.0.0, SVG Export Plug-In . SVG Version: 6.00 Build 0)  -->
<svg xmlns="http://www.w3.org/2000/svg" xmlns:xlink="http://www.w3.org/1999/xlink" version="1.1" id="Layer_1" x="0px" y="0px" viewBox="0 0 512 512" style="enable-background:new 0 0 512 512;" xml:space="preserve">
<path style="fill:#D6D6D6;" d="M462.858,181.276H271.526v62.88h-31.051v-62.88H49.688c-7.275,0-13.169,5.897-13.169,13.17v258.171  h439.509V194.446C476.028,187.172,470.131,181.276,462.858,181.276z"/>
<polyline style="fill:#5D6A7C;" points="388.468,423.973 445.926,423.973 445.926,210.777 271.526,210.777 271.526,244.156   240.474,244.156 240.474,210.777 66.911,210.777 66.911,423.973 361.011,423.973 "/>
<path style="fill:#9CE7F6;" d="M461.46,139.141c0.004-0.355,0.017-0.708,0.017-1.065c0-49.583-40.195-89.778-89.778-89.778  c-19.45,0-37.442,6.206-52.145,16.719C295.918,30.785,256.423,8.348,211.678,8.348c-68.428,0-124.592,52.461-130.492,119.355  c-0.324-0.004-0.642-0.024-0.965-0.024c-39.844,0-72.144,32.301-72.144,72.145c0,23.413,11.16,44.21,28.443,57.392v-62.77  c0-7.273,5.895-13.17,13.169-13.17h190.787V151.9h-31.918L256,80.37l47.445,71.53h-31.918v29.377h191.333  c7.272,0,13.169,5.897,13.169,13.17v43.381c16.61-8.959,27.896-26.514,27.896-46.707  C503.924,165.449,485.686,144.041,461.46,139.141z"/>
<polygon style="fill:#FFFFFF;" points="240.474,244.156 271.526,244.156 271.526,151.898 303.443,151.898 255.999,80.368   208.556,151.898 240.474,151.898 "/>
<path style="fill:#E5E3E3;" d="M144.121,503.652h65.293h93.721h163.977c20.33,0,36.813-16.483,36.813-36.813v-14.223H339.948  H172.599H8.62v14.223c0,20.331,16.484,36.813,36.813,36.813h72.308"/>
<rect x="199.209" y="452.611" style="fill:#BCBBBB;" width="114.135" height="25.518"/>
<g>
	<path style="fill:#231F20;" d="M503.924,444.54h-19.821V242.413C501.424,231.195,512,211.967,512,191.12   c0-26.757-17.559-50.29-42.584-58.248c-2.714-51.547-45.505-92.651-97.717-92.651c-17.834,0-35.019,4.764-50.162,13.844   C295.245,20.244,254.743,0.272,211.678,0.272c-34.993,0-68.435,13.043-94.163,36.726C93.719,58.902,78.421,88.1,73.959,119.844   C32.637,123.049,0,157.696,0,199.824c0,23.862,10.318,45.961,28.443,61.255v183.462H8.62c-4.461,0-8.076,3.615-8.076,8.076v14.223   c0,24.751,20.137,44.889,44.889,44.889h72.308c4.461,0,8.076-3.615,8.076-8.076c0-4.46-3.615-8.076-8.076-8.076H45.433   c-15.846,0-28.737-12.892-28.737-28.737v-6.147h19.823h154.61v17.442c0,4.461,3.615,8.076,8.076,8.076H313.34   c4.461,0,8.076-3.615,8.076-8.076v-17.442h154.612h19.821v6.147c0,15.846-12.892,28.737-28.737,28.737H144.121   c-4.461,0-8.076,3.616-8.076,8.076c0,4.461,3.615,8.076,8.076,8.076h322.991c24.751,0,44.889-20.137,44.889-44.889v-14.223   C512,448.155,508.384,444.54,503.924,444.54z M16.151,199.824c0-35.328,28.741-64.07,64.069-64.07l0.257,0.008   c0.199,0.008,0.401,0.014,0.602,0.016c4.199,0.087,7.778-3.156,8.149-7.365c5.542-62.797,59.327-111.989,122.45-111.989   c40.395,0,78.238,19.881,101.231,53.182c1.231,1.781,3.124,2.993,5.257,3.367c2.129,0.367,4.325-0.128,6.086-1.387   c13.918-9.951,30.324-15.212,47.447-15.212c45.051,0,81.703,36.651,81.703,81.703l-0.016,0.971   c-0.045,3.878,2.671,7.24,6.473,8.009c20.854,4.219,35.99,22.75,35.99,44.064c0,11.404-4.301,22.152-11.745,30.308v-26.983   c0-0.732-0.038-1.456-0.11-2.169c-1.09-10.7-10.152-19.077-21.134-19.077H279.601v-13.226h23.842c0.006-0.001,0.015,0,0.022,0   c0.346,0,0.684-0.029,1.019-0.071c0.053-0.008,0.105-0.016,0.158-0.025c0.321-0.047,0.636-0.112,0.944-0.196   c0.014-0.003,0.027-0.006,0.041-0.011c3.409-0.946,5.914-4.064,5.914-7.774c0-0.123-0.025-0.239-0.03-0.36   c-0.001-0.023-0.004-0.045-0.005-0.069c-0.076-1.451-0.534-2.793-1.278-3.942c-0.019-0.03-0.033-0.062-0.053-0.093l-47.445-71.53   c-1.497-2.256-4.023-3.611-6.73-3.611c-2.707,0-5.233,1.357-6.73,3.611l-47.443,71.531c-1.644,2.48-1.793,5.662-0.385,8.282   c1.407,2.621,4.141,4.256,7.115,4.256H232.4v13.226H49.688c-11.715,0-21.245,9.531-21.245,21.245v43.16   C20.505,226.785,16.151,213.675,16.151,199.824z M248.55,210.777v-29.501v-29.377c0-4.461-3.615-8.076-8.076-8.076h-16.872   l32.396-48.843l32.397,48.843h-16.87c-4.461,0-8.076,3.615-8.076,8.076v29.377v29.501v25.304h-14.9V210.777z M305.264,470.059   H207.28v-9.367h97.984V470.059z M313.34,444.54H199.205H44.595V257.216v-62.77c0-2.809,2.285-5.094,5.093-5.094h182.711v13.35   H66.911c-4.46,0-8.076,3.615-8.076,8.076v213.196c0,4.461,3.616,8.076,8.076,8.076h294.1c4.46,0,8.076-3.615,8.076-8.076   c0-4.46-3.616-8.076-8.076-8.076H74.988V218.852h157.411v25.304c0,4.461,3.615,8.076,8.076,8.076h31.051   c4.461,0,8.076-3.615,8.076-8.076v-25.304h158.251v197.045h-49.383c-4.461,0-8.076,3.616-8.076,8.076   c0,4.461,3.615,8.076,8.076,8.076h57.458c4.461,0,8.076-3.615,8.076-8.076V210.777c0-4.461-3.615-8.076-8.076-8.076H279.601v-13.35   h183.257c2.808,0,5.093,2.285,5.093,5.094v43.381V444.54H313.34z"/>
	<path style="fill:#231F20;" d="M367.985,88.106c24.623,0,46.071,17.477,50.998,41.557c0.783,3.824,4.148,6.458,7.903,6.458   c0.536,0,1.081-0.055,1.628-0.166c4.369-0.894,7.186-5.161,6.293-9.531c-6.458-31.562-34.561-54.469-66.822-54.469   c-4.461,0-8.076,3.615-8.076,8.076C359.909,84.491,363.524,88.106,367.985,88.106z"/>
	<path style="fill:#231F20;" d="M197.558,296.38h197.546c4.461,0,8.076-3.615,8.076-8.076s-3.615-8.076-8.076-8.076H197.558   c-4.461,0-8.076,3.615-8.076,8.076S193.097,296.38,197.558,296.38z"/>
	<path style="fill:#231F20;" d="M403.178,330.223c0-4.46-3.615-8.076-8.076-8.076H367.33c-4.461,0-8.076,3.616-8.076,8.076   c0,4.461,3.615,8.076,8.076,8.076h27.773C399.564,338.299,403.178,334.684,403.178,330.223z"/>
	<path style="fill:#231F20;" d="M339.332,322.148h-93.677c-4.461,0-8.076,3.616-8.076,8.076c0,4.461,3.615,8.076,8.076,8.076h93.677   c4.461,0,8.076-3.615,8.076-8.076C347.407,325.764,343.792,322.148,339.332,322.148z"/>
	<path style="fill:#231F20;" d="M120.545,296.38h49.738c4.461,0,8.076-3.615,8.076-8.076s-3.615-8.076-8.076-8.076h-49.738   c-4.461,0-8.076,3.615-8.076,8.076S116.084,296.38,120.545,296.38z"/>
	<path style="fill:#231F20;" d="M120.545,338.299h97.113c4.461,0,8.076-3.615,8.076-8.076c0-4.46-3.615-8.076-8.076-8.076h-97.113   c-4.461,0-8.076,3.616-8.076,8.076C112.47,334.684,116.084,338.299,120.545,338.299z"/>
	<path style="fill:#231F20;" d="M282.806,364.069H175.12c-4.461,0-8.076,3.615-8.076,8.076s3.615,8.076,8.076,8.076h107.686   c4.461,0,8.076-3.615,8.076-8.076C290.881,367.685,287.267,364.069,282.806,364.069z"/>
	<path style="fill:#231F20;" d="M149.284,364.069h-28.737c-4.461,0-8.076,3.615-8.076,8.076s3.615,8.076,8.076,8.076h28.737   c4.461,0,8.076-3.615,8.076-8.076C157.359,367.685,153.743,364.069,149.284,364.069z"/>
</g>
<g style="opacity:0.1;">
	<rect x="74.92" y="213.702" style="fill:#231F20;" width="17.228" height="210.267"/>
</g>
<g>
</g>
<g>
</g>
<g>
</g>
<g>
</g>
<g>
</g>
<g>
</g>
<g>
</g>
<g>
</g>
<g>
</g>
<g>
</g>
<g>
</g>
<g>
</g>
<g>
</g>
<g>
</g>
<g>
</g>
</svg>
